<?xml version="1.0" encoding="UTF-8"?>
<svg version="1.1" xmlns="http://www.w3.org/2000/svg" width="1874" height="1874">
<path d="M0 0 C1.78138758 -0.00702249 3.5627749 -0.0141093 5.34416199 -0.02125549 C11.00158046 -0.04064371 16.6589579 -0.04568925 22.31640625 -0.046875 C23.28025993 -0.04731686 24.24411362 -0.04775871 25.23717499 -0.04821396 C53.05254473 -0.05490186 80.73124654 0.06590725 108.42559814 2.94989014 C111.01963924 3.21765171 113.61480853 3.47138404 116.21044922 3.72314453 C157.93834367 7.80945848 199.03062835 14.79587547 239.87890625 24.203125 C240.60277527 24.36921265 241.32664429 24.53530029 242.07244873 24.7064209 C328.39431725 44.57500759 413.77006532 77.92620928 496.00292969 126.50195312 C498.76554679 128.13607163 501.5415171 129.7441252 504.32421875 131.34375 C518.19725521 139.35479796 531.51920453 148.09989111 544.76708984 157.09179688 C547.55653962 158.98440331 550.35151613 160.86846418 553.1484375 162.75 C564.28194226 170.26925739 575.13857838 178.13358763 585.87890625 186.203125 C586.98129639 187.03094482 586.98129639 187.03094482 588.10595703 187.87548828 C601.49901428 197.96146989 614.55088311 208.44650029 627.30444336 219.32958984 C630.55359803 222.09960882 633.85371474 224.79091868 637.19140625 227.453125 C642.72338997 231.94684785 647.88585464 236.80171777 653.04614258 241.71191406 C656.27305374 244.77989812 659.52575756 247.78763254 662.8984375 250.6953125 C666.91867978 254.18347109 670.65434408 257.90414941 674.37890625 261.703125 C680.143715 267.54292005 680.143715 267.54292005 686.25390625 273.015625 C689.95483182 276.14717741 693.05635219 279.68811127 696.25390625 283.32421875 C699.3977427 286.77214653 702.68611663 290.04872159 706.00390625 293.328125 C710.22228858 297.50649106 714.34386418 301.69220849 718.18359375 306.2265625 C720.31513795 308.71172694 722.53574224 311.10752646 724.75390625 313.515625 C728.80411917 317.95563284 732.63424747 322.52246781 736.40625 327.19921875 C739.28774822 330.69980664 742.26650345 334.10555873 745.25390625 337.515625 C751.39156547 344.55411136 757.19630169 351.79471856 762.87890625 359.203125 C763.78213623 360.37536621 763.78213623 360.37536621 764.70361328 361.57128906 C769.46506154 367.75464926 774.18873283 373.9655297 778.87890625 380.203125 C779.41708984 380.91855469 779.95527344 381.63398438 780.50976562 382.37109375 C836.46940664 457.2252578 880.1111322 542.01983723 913.24334717 638.32507324 C913.8474704 640.11023333 914.45703428 641.8935495 915.06689453 643.67675781 C943.14192917 726.16463545 960.22486043 816.24165148 961.08203125 913.32421875 C961.08905374 915.10560633 961.09614055 916.88699365 961.10328674 918.66838074 C961.12267496 924.32579921 961.1277205 929.98317665 961.12890625 935.640625 C961.12934811 936.60447868 961.12978996 937.56833237 961.13024521 938.56139374 C961.13693311 966.37676348 961.016124 994.05546529 958.13214111 1021.74981689 C957.86437954 1024.34385799 957.61064721 1026.93902728 957.35888672 1029.53466797 C953.27257277 1071.26256242 946.28615578 1112.3548471 936.87890625 1153.203125 C936.7128186 1153.92699402 936.54673096 1154.65086304 936.37561035 1155.39666748 C916.50702366 1241.718536 883.15582197 1327.09428407 834.58007812 1409.32714844 C832.94595962 1412.08976554 831.33790605 1414.86573585 829.73828125 1417.6484375 C821.72723329 1431.52147396 812.98214014 1444.84342328 803.99023438 1458.09130859 C802.09762794 1460.88075837 800.21356707 1463.67573488 798.33203125 1466.47265625 C790.81277386 1477.60616101 782.94844362 1488.46279713 774.87890625 1499.203125 C774.05108643 1500.30551514 774.05108643 1500.30551514 773.20654297 1501.43017578 C763.12056136 1514.82323303 752.63553096 1527.87510186 741.75244141 1540.62866211 C738.98242243 1543.87781678 736.29111257 1547.17793349 733.62890625 1550.515625 C729.1351834 1556.04760872 724.28031348 1561.21007339 719.37011719 1566.37036133 C716.29211597 1569.60780855 713.27444741 1572.87176561 710.35546875 1576.25390625 C707.03079144 1580.08572981 703.50273694 1583.65605551 699.87890625 1587.203125 C696.2254037 1590.81038068 692.6095617 1594.38294127 689.31640625 1598.328125 C685.87090131 1602.39693737 681.93863124 1605.91305188 677.99902344 1609.48950195 C674.07627939 1613.06139955 670.2912759 1616.73837623 666.56640625 1620.515625 C662.81062474 1624.31495181 658.9948475 1627.97374939 654.92578125 1631.4375 C652.42175776 1633.5974592 649.99892927 1635.83800493 647.56640625 1638.078125 C643.12639841 1642.12833792 638.55956344 1645.95846622 633.8828125 1649.73046875 C630.38222461 1652.61196697 626.97647252 1655.5907222 623.56640625 1658.578125 C616.52791989 1664.71578422 609.28731269 1670.52052044 601.87890625 1676.203125 C600.70666504 1677.10635498 600.70666504 1677.10635498 599.51074219 1678.02783203 C593.32738199 1682.78928029 587.11650155 1687.51295158 580.87890625 1692.203125 C580.16347656 1692.74130859 579.44804688 1693.27949219 578.7109375 1693.83398438 C503.85677345 1749.79362539 419.06219402 1793.43535095 322.75695801 1826.56756592 C320.97179792 1827.17168915 319.18848175 1827.78125303 317.40527344 1828.39111328 C249.62115235 1851.46167349 178.49416352 1865.1127325 107.25390625 1871.453125 C105.85405991 1871.57788712 105.85405991 1871.57788712 104.42593384 1871.70516968 C101.71016614 1871.94421924 98.99393936 1872.17681369 96.27734375 1872.40625 C95.12426476 1872.50589806 95.12426476 1872.50589806 93.94789124 1872.6075592 C78.56281765 1873.86912156 63.18988224 1874.36837473 47.7578125 1874.40625 C45.97642492 1874.41327249 44.1950376 1874.4203593 42.41365051 1874.42750549 C36.75623204 1874.44689371 31.0988546 1874.45193925 25.44140625 1874.453125 C23.99562572 1874.45378778 23.99562572 1874.45378778 22.52063751 1874.45446396 C-5.29473223 1874.46115186 -32.97343404 1874.34034275 -60.66778564 1871.45635986 C-63.26182674 1871.18859829 -65.85699603 1870.93486596 -68.45263672 1870.68310547 C-110.18053117 1866.59679152 -151.27281585 1859.61037453 -192.12109375 1850.203125 C-193.20689728 1849.95399353 -193.20689728 1849.95399353 -194.31463623 1849.6998291 C-280.63650475 1829.83124241 -366.01225282 1796.48004072 -448.24511719 1747.90429688 C-451.00773429 1746.27017837 -453.7837046 1744.6621248 -456.56640625 1743.0625 C-470.43944271 1735.05145204 -483.76139203 1726.30635889 -497.00927734 1717.31445312 C-499.79872712 1715.42184669 -502.59370363 1713.53778582 -505.390625 1711.65625 C-516.52412976 1704.13699261 -527.38076588 1696.27266237 -538.12109375 1688.203125 C-538.85602051 1687.65124512 -539.59094727 1687.09936523 -540.34814453 1686.53076172 C-553.74120178 1676.44478011 -566.79307061 1665.95974971 -579.54663086 1655.07666016 C-582.79578553 1652.30664118 -586.09590224 1649.61533132 -589.43359375 1646.953125 C-594.96557747 1642.45940215 -600.12804214 1637.60453223 -605.28833008 1632.69433594 C-608.5257773 1629.61633472 -611.78973436 1626.59866616 -615.171875 1623.6796875 C-619.00369856 1620.35501019 -622.57402426 1616.82695569 -626.12109375 1613.203125 C-629.72834943 1609.54962245 -633.30091002 1605.93378045 -637.24609375 1602.640625 C-641.31490612 1599.19512006 -644.83102063 1595.26284999 -648.4074707 1591.32324219 C-651.9793683 1587.40049814 -655.65634498 1583.61549465 -659.43359375 1579.890625 C-663.23292056 1576.13484349 -666.89171814 1572.31906625 -670.35546875 1568.25 C-672.51542795 1565.74597651 -674.75597368 1563.32314802 -676.99609375 1560.890625 C-681.04630667 1556.45061716 -684.87643497 1551.88378219 -688.6484375 1547.20703125 C-691.52993572 1543.70644336 -694.50869095 1540.30069127 -697.49609375 1536.890625 C-703.63375297 1529.85213864 -709.43848919 1522.61153144 -715.12109375 1515.203125 C-715.72324707 1514.42163086 -716.32540039 1513.64013672 -716.94580078 1512.83496094 C-721.70724904 1506.65160074 -726.43092033 1500.4407203 -731.12109375 1494.203125 C-731.65927734 1493.48769531 -732.19746094 1492.77226563 -732.75195312 1492.03515625 C-788.71159414 1417.1809922 -832.3533197 1332.38641277 -865.48553467 1236.08117676 C-866.0896579 1234.29601667 -866.69922178 1232.5127005 -867.30908203 1230.72949219 C-890.96976754 1161.21151098 -904.57505079 1088.39089681 -910.87109375 1015.328125 C-910.93035034 1014.64107483 -910.98960693 1013.95402466 -911.05065918 1013.24615479 C-912.52562603 995.86607612 -913.28141443 978.5224145 -913.32421875 961.08203125 C-913.33124124 959.30064367 -913.33832805 957.51925635 -913.34547424 955.73786926 C-913.36486246 950.08045079 -913.369908 944.42307335 -913.37109375 938.765625 C-913.37153561 937.80177132 -913.37197746 936.83791763 -913.37243271 935.84485626 C-913.37912061 908.02948652 -913.2583115 880.35078471 -910.37432861 852.65643311 C-910.10656704 850.06239201 -909.85283471 847.46722272 -909.60107422 844.87158203 C-905.51476027 803.14368758 -898.52834328 762.0514029 -889.12109375 721.203125 C-888.9550061 720.47925598 -888.78891846 719.75538696 -888.61779785 719.00958252 C-868.74921116 632.687714 -835.39800947 547.31196593 -786.82226562 465.07910156 C-785.18814712 462.31648446 -783.58009355 459.54051415 -781.98046875 456.7578125 C-773.96942079 442.88477604 -765.22432764 429.56282672 -756.23242188 416.31494141 C-754.33981544 413.52549163 -752.45575457 410.73051512 -750.57421875 407.93359375 C-743.05496136 396.80008899 -735.19063112 385.94345287 -727.12109375 375.203125 C-726.56921387 374.46819824 -726.01733398 373.73327148 -725.44873047 372.97607422 C-715.36274886 359.58301697 -704.87771846 346.53114814 -693.99462891 333.77758789 C-691.22460993 330.52843322 -688.53330007 327.22831651 -685.87109375 323.890625 C-681.3773709 318.35864128 -676.52250098 313.19617661 -671.61230469 308.03588867 C-668.54432063 304.80897751 -665.53658621 301.55627369 -662.62890625 298.18359375 C-659.14074766 294.16335147 -655.42006934 290.42768717 -651.62109375 286.703125 C-645.7812987 280.93831625 -645.7812987 280.93831625 -640.30859375 274.828125 C-637.17704134 271.12719943 -633.63610748 268.02567906 -630 264.828125 C-626.55207222 261.68428855 -623.27549716 258.39591462 -619.99609375 255.078125 C-615.81772769 250.85974267 -611.63201026 246.73816707 -607.09765625 242.8984375 C-604.61249181 240.7668933 -602.21669229 238.54628901 -599.80859375 236.328125 C-595.36858591 232.27791208 -590.80175094 228.44778378 -586.125 224.67578125 C-582.62441211 221.79428303 -579.21866002 218.8155278 -575.80859375 215.828125 C-568.77010739 209.69046578 -561.52950019 203.88572956 -554.12109375 198.203125 C-553.33959961 197.60097168 -552.55810547 196.99881836 -551.75292969 196.37841797 C-545.56956949 191.61696971 -539.35868905 186.89329842 -533.12109375 182.203125 C-532.40566406 181.66494141 -531.69023438 181.12675781 -530.953125 180.57226562 C-456.09896095 124.61262461 -371.30438152 80.97089905 -274.99914551 47.83868408 C-273.21398542 47.23456085 -271.43066925 46.62499697 -269.64746094 46.01513672 C-221.13065504 29.50227392 -170.76361114 17.8992348 -120.12109375 10.203125 C-119.40532166 10.09353455 -118.68954956 9.98394409 -117.9520874 9.87103271 C-98.52687308 6.90861589 -79.06825093 4.69132796 -59.49609375 2.953125 C-58.56331604 2.87004089 -57.63053833 2.78695679 -56.66949463 2.70135498 C-53.95326675 2.46224809 -51.23658182 2.22955638 -48.51953125 2 C-47.75078674 1.93356293 -46.98204224 1.86712585 -46.19000244 1.79867554 C-30.80494654 0.53717312 -15.43204894 0.03787522 0 0 Z " fill="#000000" transform="translate(913.12109375,-0.203125)"/>
<path d="M0 0 C1.88094864 -0.00392761 1.88094864 -0.00392761 3.79989624 -0.00793457 C38.13060499 -0.0155286 72.24422895 2.64243231 106.16845703 7.91162109 C109.56424343 8.42647624 112.96508979 8.83958336 116.375 9.25 C127.57386986 10.74318265 138.67705238 12.87838717 149.78271484 14.9375 C151.83635744 15.31690763 153.890742 15.69205858 155.9453125 16.06640625 C173.92338201 19.35175263 191.74383047 23.10412369 209.5 27.4375 C210.34678314 27.64337738 211.19356628 27.84925476 212.06600952 28.06137085 C222.15992899 30.52624098 232.14939065 33.23137173 242.10229492 36.21386719 C245.81943175 37.31455257 249.54880464 38.31472416 253.3034668 39.27636719 C264.69534279 42.21388743 275.84241171 45.85111608 287 49.5625 C287.8107901 49.8307962 288.6215802 50.09909241 289.4569397 50.3755188 C291.77920418 51.14578023 294.09899911 51.92300691 296.41796875 52.703125 C297.47121841 53.052826 297.47121841 53.052826 298.54574585 53.40959167 C301.63258637 54.45833729 304.0800836 55.49088907 306.8125 57.3125 C306.57241211 58.12138672 306.33232422 58.93027344 306.08496094 59.76367188 C293.58116362 102.13307726 283.28221561 144.9594473 274.8125 188.3125 C274.6328772 189.22994995 274.45325439 190.1473999 274.26818848 191.09265137 C266.61757371 230.2992039 260.5840986 269.81907793 256 309.5 C255.8967038 310.38228271 255.79340759 311.26456543 255.6869812 312.17358398 C254.69811246 320.64718137 253.78329842 329.10312373 253.23046875 337.6171875 C251.88008976 356.73760899 251.88008976 356.73760899 245.625 362.5625 C243.72396054 363.86728168 241.78796741 365.12341011 239.8125 366.3125 C238.43216173 367.46947444 237.07520812 368.65526763 235.75 369.875 C235.11964844 370.42285156 234.48929688 370.97070312 233.83984375 371.53515625 C230.60571709 374.3704696 227.42227235 377.26176764 224.23046875 380.14453125 C222.2134831 381.95297557 220.17758404 383.7323734 218.125 385.5 C212.35191559 390.53116192 206.80292535 395.81229152 201.22607422 401.05859375 C199.45573384 402.71181875 197.67451808 404.3534182 195.88720703 405.98828125 C184.01341221 416.88801418 172.65916792 428.31266572 161.27587891 439.71875 C158.3736987 442.62667405 155.46698429 445.53001815 152.55895996 448.43209648 C150.28874945 450.69867517 148.02094818 452.96765243 145.75384521 455.23733902 C144.68301433 456.30882947 143.61146111 457.37959859 142.53912354 458.44958115 C137.28390585 463.69576652 132.09030686 468.95282223 127.2878418 474.62307739 C125.70341433 476.43741464 124.03202002 478.12634952 122.3125 479.8125 C119.28987847 482.78810297 116.49206474 485.90228143 113.72265625 489.11328125 C110.14511986 493.23220352 106.47027668 497.26489224 102.8125 501.3125 C98.99761059 499.79851922 97.18173371 497.58252932 94.6875 494.375 C91.51708529 490.38859331 88.26872104 486.5540477 84.8125 482.8125 C80.75266355 478.39609856 76.91926179 473.85086478 73.15234375 469.18359375 C71.07512022 466.63474684 68.96258909 464.12503675 66.82666016 461.62573242 C61.14310215 454.97427148 55.68840664 448.17076406 50.32519531 441.25927734 C48.69806978 439.16523296 47.06427243 437.07650733 45.4296875 434.98828125 C-11.90525475 361.65381236 -63.21882866 281.63933862 -127.4387207 108.37548828 C-128.2848752 104.91417289 -129.22965347 101.48607012 -130.17578125 98.05078125 C-132.25988736 90.29168384 -133.81972815 82.46482627 -135.25 74.5625 C-135.5092993 73.14598521 -135.76865875 71.72948144 -136.02807617 70.31298828 C-136.53239415 67.54778868 -137.0313565 64.78170334 -137.52539062 62.01464844 C-137.92271311 59.79304143 -138.3238065 57.57209675 -138.73242188 55.35253906 C-141.05599702 42.69821384 -141.85682851 30.16849591 -142.1875 17.3125 C-112.50394422 6.79568464 -78.50899225 3.19222838 -47.1875 1.3125 C-46.53725861 1.27186432 -45.88701721 1.23122864 -45.21707153 1.18936157 C-30.15052802 0.26691152 -15.09251302 0.0304579 0 0 Z " fill="#FE0000" transform="translate(394.1875,431.6875)"/>
<path d="M0 0 C3.73493575 0.01147761 7.46958891 0.00454204 11.20451546 -0.0068779 C33.94147304 -0.06582905 56.54535809 0.74348506 79.08105469 4.01074219 C80.2528125 4.17703125 81.42457031 4.34332031 82.63183594 4.51464844 C92.10834041 5.90267175 101.53723658 7.52955497 110.95605469 9.26074219 C111.61688049 9.38026245 112.2777063 9.49978271 112.95855713 9.6229248 C121.84606616 11.24267729 130.38227581 13.41245477 138.95605469 16.26074219 C139.12687397 24.6878267 138.6698719 32.89023889 137.70605469 41.26074219 C137.50471924 43.03167236 137.50471924 43.03167236 137.29931641 44.83837891 C136.18005378 54.23178098 134.53203236 63.41055523 132.51074219 72.64550781 C131.90193412 75.51590922 131.34682584 78.3935657 130.79980469 81.27636719 C128.15564054 95.14482586 124.90152405 108.70718087 120.95605469 122.26074219 C120.59785645 123.51193848 120.2396582 124.76313477 119.87060547 126.05224609 C116.80915618 136.68004355 113.41765356 147.17427365 109.83105469 157.63574219 C109.40919891 158.86881607 109.40919891 158.86881607 108.9788208 160.12680054 C103.84753687 175.07882285 98.19860235 189.73300641 91.95605469 204.26074219 C91.52115723 205.28312988 91.08625977 206.30551758 90.63818359 207.35888672 C61.51041049 275.67597025 23.58809675 340.43600091 -20.50048828 400.16845703 C-22.16882708 402.43002988 -23.82741922 404.69856223 -25.48535156 406.96777344 C-35.7853588 421.0399138 -46.25484512 434.95692472 -57.30761719 448.44848633 C-60.80183103 452.71537774 -64.2234214 457.03038138 -67.60644531 461.38574219 C-72.7038168 467.92498123 -78.06299184 474.2151914 -83.49707031 480.47558594 C-86.17026621 483.56056201 -88.82513388 486.6612303 -91.48144531 489.76074219 C-91.96540771 490.3240625 -92.44937012 490.88738281 -92.94799805 491.46777344 C-96.0125873 495.03895479 -99.03883869 498.63934328 -102.04394531 502.26074219 C-105.78161116 499.2095864 -109.20753033 496.19904003 -112.34082031 492.52636719 C-115.87930598 488.4313028 -119.52615779 484.45495417 -123.23144531 480.51074219 C-123.87855469 479.82044922 -124.52566406 479.13015625 -125.19238281 478.41894531 C-130.10727079 473.19989433 -135.13514906 468.11416381 -140.26269531 463.10449219 C-142.35802809 460.96207328 -144.31735254 458.81419303 -146.26660156 456.54589844 C-150.60874301 451.53391451 -155.28375654 446.87478607 -159.98144531 442.19824219 C-160.83673828 441.33908203 -161.69203125 440.47992187 -162.57324219 439.59472656 C-166.97968489 435.19500612 -171.4563038 430.96452536 -176.17895508 426.9074707 C-179.88900239 423.63161403 -183.29678284 420.04779421 -186.75488281 416.51074219 C-190.3610712 412.85560102 -194.09110349 409.42800739 -197.97753906 406.07324219 C-202.33337553 402.25262192 -206.49021091 398.21347325 -210.68847656 394.22167969 C-214.80384827 390.32449039 -218.97998482 386.52369952 -223.26220703 382.81054688 C-225.49259573 380.87049378 -227.67472544 378.88023916 -229.85644531 376.88574219 C-235.96021235 371.37539695 -242.30218212 366.15571315 -248.80566406 361.12402344 C-251.40472239 358.96040944 -251.94589901 358.12868462 -252.32177734 354.80126953 C-252.3976709 353.74375488 -252.47356445 352.68624023 -252.55175781 351.59667969 C-252.64730957 350.35958252 -252.74286133 349.12248535 -252.84130859 347.84790039 C-252.89353577 347.16829254 -252.94576294 346.48868469 -252.99957275 345.78848267 C-258.67515548 273.65131492 -271.06634999 201.57754603 -288.04394531 131.26074219 C-288.23472656 130.46817017 -288.42550781 129.67559814 -288.62207031 128.85900879 C-293.41437678 108.9723073 -298.41550606 89.17928769 -304.35229492 69.59960938 C-304.70686768 68.42043945 -305.06144043 67.24126953 -305.42675781 66.02636719 C-305.74016113 65.00317383 -306.05356445 63.97998047 -306.37646484 62.92578125 C-307.04394531 60.26074219 -307.04394531 60.26074219 -307.04394531 56.26074219 C-279.66743766 46.93712418 -279.66743766 46.93712418 -268.13037109 43.93383789 C-264.14486296 42.88871542 -260.26004242 41.67234908 -256.36035156 40.33886719 C-249.95426322 38.17635357 -243.47343401 36.4709606 -236.91894531 34.82324219 C-229.24549925 32.86879823 -221.5925438 30.88281816 -213.98144531 28.69824219 C-192.97509495 22.75281882 -171.45367382 18.46622457 -150.04394531 14.26074219 C-148.98691406 14.05094727 -147.92988281 13.84115234 -146.84082031 13.625 C-130.33078015 10.40491993 -113.68294954 8.18332666 -97.00454712 6.04196167 C-94.63104394 5.73700659 -92.25794949 5.42884737 -89.88534546 5.11697388 C-59.96696002 1.20873681 -30.14416307 -0.09298224 0 0 Z " fill="#FE0000" transform="translate(1480.0439453125,428.7392578125)"/>
<path d="M0 0 C2.26977539 0.94287109 2.26977539 0.94287109 4.59765625 2.2734375 C5.47147949 2.76360352 6.34530273 3.25376953 7.24560547 3.75878906 C8.17518066 4.29213867 9.10475586 4.82548828 10.0625 5.375 C12.04397631 6.48462674 14.02708547 7.59134211 16.01171875 8.6953125 C17.01251465 9.25250977 18.01331055 9.80970703 19.04443359 10.38378906 C23.43354292 12.78391328 27.89160926 15.03217342 32.375 17.25 C33.61890503 17.86584961 33.61890503 17.86584961 34.88793945 18.49414062 C36.50445163 19.29254482 38.12153935 20.089785 39.73925781 20.88574219 C42.45055183 22.22206464 45.15458725 23.5724529 47.85693359 24.92675781 C49.13251448 25.5656998 50.40890006 26.20303751 51.68603516 26.83886719 C55.49149856 28.73463598 59.2820608 30.65632904 63.0625 32.6015625 C79.6394471 41.07977043 96.58079016 48.62953108 113.63476562 56.08642578 C117.55062951 57.79985699 121.45577599 59.53615852 125.359375 61.27734375 C157.93123875 75.71725749 191.29525081 88.4643104 225 100 C224.36301283 105.94437232 222.78458683 111.32424754 220.9296875 116.99609375 C220.61693375 117.96501556 220.30417999 118.93393738 219.98194885 119.93222046 C218.954266 123.10330662 217.91596055 126.27074906 216.875 129.4375 C216.51785919 130.52767426 216.16071838 131.61784851 215.79275513 132.74105835 C201.7544713 175.49704859 185.33969372 217.35584749 166 258 C165.46052734 259.14452637 164.92105469 260.28905273 164.36523438 261.46826172 C137.46927933 318.494201 104.82432597 373.75306931 64 422 C63.55769043 422.52577637 63.11538086 423.05155273 62.65966797 423.59326172 C61.17346472 425.35771999 59.68155605 427.11718746 58.1875 428.875 C57.53152832 429.65025024 57.53152832 429.65025024 56.86230469 430.44116211 C47.63111684 441.22012333 37.76743589 451.41923258 27.73608398 461.44921875 C25.92987805 463.25763126 24.13187658 465.07395139 22.33398438 466.890625 C16.21218738 473.04094796 10.03820735 478.85262769 3.20922852 484.22167969 C1.33839726 485.72760685 -0.34738285 487.26224497 -2 489 C-5.50827915 487.47920927 -7.95271646 485.4004327 -10.75 482.8125 C-14.12246018 479.68900652 -14.12246018 479.68900652 -17.58178711 476.66333008 C-24.43151168 470.85500824 -30.7008147 464.44955452 -37.03637695 458.09399414 C-39.05764268 456.0673702 -41.08419574 454.04614453 -43.11132812 452.02539062 C-49.28552948 445.85465899 -55.39001592 439.69610713 -61 433 C-61.94836817 431.91608151 -62.89885543 430.83401306 -63.8515625 429.75390625 C-71.07548925 421.4711229 -77.8212565 412.88661436 -84.41943359 404.09960938 C-85.9123282 402.11646239 -87.41689763 400.14287018 -88.92578125 398.171875 C-101.40387579 381.80771512 -113.18522998 364.94527714 -123.67138672 347.23339844 C-125.04798951 344.91932964 -126.44530559 342.61885955 -127.84765625 340.3203125 C-170.03808186 270.99996518 -200.9768797 196.3889867 -226.20236206 119.42498779 C-226.64750255 118.06834031 -227.09531966 116.71256789 -227.54592896 115.35772705 C-228.16224743 113.49933359 -228.76508509 111.63648538 -229.3671875 109.7734375 C-229.70862793 108.72591309 -230.05006836 107.67838867 -230.40185547 106.59912109 C-231 104 -231 104 -230 101 C-227.21655273 99.7199707 -227.21655273 99.7199707 -223.43359375 98.42578125 C-222.40077522 98.06494698 -222.40077522 98.06494698 -221.34709167 97.69682312 C-219.84204719 97.17117605 -218.33533101 96.65029746 -216.82720947 96.13354492 C-212.71368055 94.72023838 -208.61642427 93.26149238 -204.51953125 91.80078125 C-203.65962585 91.49447784 -202.79972046 91.18817444 -201.91375732 90.87258911 C-175.51494231 81.40773764 -149.6055004 70.41869164 -124 59 C-123.3598999 58.71529846 -122.7197998 58.43059692 -122.06030273 58.13726807 C-93.03192202 45.22373648 -64.4650589 31.41917223 -36.1875 16.9375 C-35.42135376 16.54598755 -34.65520752 16.1544751 -33.86584473 15.75109863 C-31.6519605 14.61802146 -29.44041268 13.48058567 -27.23046875 12.33984375 C-26.53220978 11.97960114 -25.83395081 11.61935852 -25.11453247 11.24819946 C-21.6915829 9.46457484 -18.31914084 7.62617741 -14.99462891 5.66455078 C-14.36011307 5.29092911 -13.72559723 4.91730743 -13.07185364 4.53236389 C-11.35648162 3.51173431 -9.65110296 2.47436111 -7.9465332 1.43579102 C-4.87197876 -0.06238238 -3.35069856 -0.49919267 0 0 Z " fill="#FE0000" transform="translate(940,1289)"/>
<path d="M0 0 C8.37370816 8.28202523 16.28945051 16.94782645 23.6640625 26.1328125 C26.33874352 29.41578218 29.10201279 32.61269587 31.875 35.8125 C36.3284283 40.96958264 40.60860723 46.23127146 44.78686523 51.61303711 C47.73550283 55.40699638 50.73957601 59.14805744 53.78710938 62.86303711 C60.22359284 70.70964365 66.4030832 78.71093659 72.43017578 86.87548828 C74.07161994 89.0969264 75.72100671 91.31231964 77.37109375 93.52734375 C110.27782562 137.80193974 140.11784298 184.27874133 166 233 C166.50241211 233.94166016 167.00482422 234.88332031 167.52246094 235.85351562 C187.97006782 274.24765581 205.21280204 313.74791522 219 355 C219.36448242 356.08249023 219.72896484 357.16498047 220.10449219 358.28027344 C224.13084804 370.30498326 227.52040807 382.4001989 230.45458984 394.73486328 C230.95835035 396.82702532 231.48249329 398.91226095 232.01953125 400.99609375 C232.86003496 404.26769584 233.67839821 407.5423115 234.47314453 410.82519531 C234.83723915 412.32814011 235.20568328 413.8300355 235.57763672 415.33105469 C238.80488998 428.50532143 240.97157865 441.76141001 242.8125 455.1875 C242.97913651 456.37912247 242.97913651 456.37912247 243.1491394 457.59481812 C244.42124071 466.77456975 245.35755688 475.70692643 245 485 C237.14153608 487.89840162 229.14666762 489.47437611 220.9375 491 C219.62033553 491.24943467 218.3032775 491.49943215 216.98632812 491.75 C214.32855582 492.25484042 211.66961375 492.75280274 209.00976562 493.24658203 C206.36334582 493.73945282 203.72428303 494.25434806 201.08398438 494.78076172 C191.75405332 496.63183189 182.43323455 497.89819438 172.97363281 498.88037109 C170.63249791 499.12421903 168.29285111 499.37974046 165.953125 499.63671875 C145.64403719 501.82747521 125.42171735 502.28004448 105 502.3125 C104.3256831 502.31379787 103.6513662 502.31509575 102.95661545 502.31643295 C54.57486964 502.38663321 6.18645541 497.87044296 -41.33789062 488.70214844 C-44.63411795 488.07015178 -47.93298585 487.45642353 -51.23377991 486.84896851 C-73.69738075 482.7049222 -95.87406293 477.66986713 -118 472 C-119.81298584 471.5359375 -119.81298584 471.5359375 -121.66259766 471.0625 C-149.47458608 463.88004096 -176.81773021 455.25012932 -204 446 C-203.75142746 445.09087105 -203.75142746 445.09087105 -203.49783325 444.16337585 C-190.84377529 397.83679685 -179.70132829 351.47003843 -170.25 304.375 C-170.05150452 303.38722565 -169.85300903 302.39945129 -169.64849854 301.38174438 C-168.36173706 294.93341018 -167.15628221 288.47297496 -166 282 C-160.58568723 283.5457129 -156.05589229 286.06560561 -151.1875 288.8125 C-47.31120272 346.85118764 -47.31120272 346.85118764 67 375 C61.22096985 334.54678898 26.27678552 296.10562625 0.62109375 266.08984375 C-1.82303334 263.22422306 -4.19695734 260.30594478 -6.5625 257.375 C-10.43579272 252.61479947 -14.50759992 248.07195216 -18.66015625 243.5546875 C-20.65834848 241.37302185 -22.62148889 239.16988691 -24.5625 236.9375 C-31.88780836 228.52696077 -39.43814834 220.33162959 -47.06860352 212.19848633 C-49.4912617 209.61456432 -51.9062911 207.02402537 -54.31225586 204.42456055 C-65.76757579 192.09548464 -77.64679018 180.19885282 -89.55712891 168.3125 C-92.44930845 165.42607829 -95.33688848 162.53510294 -98.22322083 159.64283562 C-100.48121771 157.38120815 -102.7416115 155.12198831 -105.00271606 152.86346817 C-106.06862415 151.79821927 -107.13381198 150.7322491 -108.19821167 149.66549301 C-113.43957415 144.41504854 -118.69654154 139.23231063 -124.35693359 134.4289856 C-125.98024793 133.01717851 -127.49732051 131.53868059 -129 130 C-127.90303373 126.7091012 -127.15198144 126.03203283 -124.5625 123.875 C-116.39622101 116.93945454 -108.51475668 109.68411549 -100.66308594 102.39599609 C-98.36842043 100.26641746 -96.06799816 98.14341961 -93.76245117 96.02563477 C-81.50717114 84.7069955 -69.74315842 72.89672632 -57.96069336 61.09106445 C-55.00585784 58.13047922 -52.04647958 55.1744816 -49.08579922 52.21974277 C-46.77355741 49.91113159 -44.46372323 47.60012326 -42.1545887 45.28840446 C-41.06422022 44.1973764 -39.97312934 43.10706974 -38.8812542 42.01754951 C-33.03889302 36.18505193 -27.36506018 30.27745043 -22 24 C-20.77045367 22.65740533 -19.53343535 21.32150538 -18.28125 20 C-17.65863281 19.34 -17.03601562 18.68 -16.39453125 18 C-15.13151042 16.66666667 -13.86848958 15.33333333 -12.60546875 14 C-8.29147848 9.42699169 -4.10747705 4.75935707 0 0 Z " fill="#FE0000" transform="translate(1377,940)"/>
<path d="M0 0 C2.93747848 1.31427078 4.8980337 2.68502399 7.06640625 5.0546875 C7.62851807 5.66328613 8.19062988 6.27188477 8.76977539 6.89892578 C9.36137451 7.55103027 9.95297363 8.20313477 10.5625 8.875 C11.49340454 9.88602783 11.49340454 9.88602783 12.44311523 10.91748047 C15.27789651 14.00023683 18.09264783 17.10104957 20.90625 20.203125 C26.23280991 26.0623409 31.65733005 31.75327683 37.32250977 37.28564453 C40.08879608 40.00578946 42.71113801 42.78579427 45.23828125 45.73046875 C49.72531099 50.91770771 54.57951873 55.72523507 59.4375 60.5625 C60.34048828 61.46935547 61.24347656 62.37621094 62.17382812 63.31054688 C66.71469565 67.84483819 71.31427852 72.22370351 76.18383789 76.40209961 C79.65532037 79.4563882 82.83925468 82.79783959 86.06640625 86.10546875 C89.54098326 89.63126802 93.15359091 92.92035147 96.8984375 96.15673828 C100.60321769 99.40616793 104.17024423 102.80167416 107.75 106.1875 C108.49121094 106.88552734 109.23242188 107.58355469 109.99609375 108.30273438 C113.37690912 111.49235462 116.7238142 114.70246357 120 118 C118.50341097 119.52419005 117.00251195 121.04414831 115.5 122.5625 C114.6646875 123.40941406 113.829375 124.25632812 112.96875 125.12890625 C110.8989338 127.17674837 108.75060761 129.08087413 106.53125 130.96484375 C100.01430045 136.61332823 94.06100723 142.87263138 88 149 C74.15447543 162.9971179 74.15447543 162.9971179 68.04345703 168.18798828 C63.69210918 172.0464953 59.62999467 176.2231542 55.52709961 180.3425293 C53.94040054 181.93458966 52.34842258 183.5212299 50.75585938 185.10742188 C45.90008551 189.96035295 41.16501802 194.85962859 36.70141602 200.08032227 C32.59962531 204.7083005 28.07939469 208.95549448 23.671875 213.2890625 C19.43193268 217.4857401 15.38054647 221.76068326 11.4921875 226.28515625 C9.74956276 228.28780614 7.90940495 230.1564366 6 232 C2.87589016 235.08245505 -0.02701088 238.27509772 -2.88671875 241.6015625 C-5.69736974 244.79146953 -8.59879414 247.89255891 -11.5 251 C-16.09097263 255.92617423 -20.62093543 260.88340876 -25 266 C-25.8996035 267.04569001 -26.79935733 268.09125069 -27.69921875 269.13671875 C-30.29283657 272.15302526 -32.87912466 275.17551893 -35.46240234 278.20068359 C-36.45379386 279.3608226 -37.44622904 280.52007095 -38.43994141 281.67822266 C-45.01597892 289.34296227 -51.37537386 297.14565219 -57.55224609 305.13574219 C-59.03053888 307.03932461 -60.52423891 308.93006432 -62.01953125 310.8203125 C-85.62106003 338.89500859 -85.62106003 338.89500859 -99 372 C-77.12686062 373.11093823 -56.43092124 368.63140737 -35.70849609 361.86962891 C-32.98857011 360.99633016 -30.2574095 360.16398679 -27.52471924 359.33169556 C-18.09123962 356.43948791 -8.84799683 353.12613815 0.375 349.625 C1.16558807 349.325867 1.95617615 349.02673401 2.77072144 348.71853638 C19.49889768 342.36817372 35.85092863 335.27590274 52.12640381 327.85180664 C54.91887888 326.58224342 57.71997499 325.33198031 60.51953125 324.078125 C76.66947651 316.77359133 92.51479961 308.84606887 108.375 300.9375 C109.47825623 300.38855072 110.58151245 299.83960144 111.71820068 299.27401733 C125.06262 292.62638121 138.26244737 285.77988736 151.30712891 278.56079102 C152.87046708 277.70545135 154.43471818 276.85177755 156 276 C156.75432312 275.58370331 157.50864624 275.16740662 158.28582764 274.73849487 C160.15061574 273.74662751 162.07214404 272.86290611 164 272 C164.99 272.33 165.98 272.66 167 273 C167.25523437 274.36705078 167.25523437 274.36705078 167.515625 275.76171875 C169.15586386 284.53001694 170.81396263 293.29472836 172.48902893 302.05644226 C173.29004657 306.25130818 174.08571571 310.44687697 174.85888672 314.64697266 C179.07823729 337.55572041 184.35231751 360.15807897 190 382.75 C190.16866955 383.42656773 190.3373391 384.10313545 190.51111984 384.80020523 C194.56906007 401.07653322 198.8207086 417.27974842 203.5625 433.37127686 C204.04203125 435.00942352 204.04203125 435.00942352 204.53125 436.68066406 C204.81548828 437.63910217 205.09972656 438.59754028 205.39257812 439.58502197 C206 442 206 442 206 445 C199.19641175 447.1562929 192.39073538 449.30590269 185.58374023 451.45141602 C183.28054895 452.17815966 180.97779569 452.90629333 178.67553711 453.63598633 C163.40547797 458.47445466 148.0895807 463.04756978 132.63943481 467.27706909 C130.34009377 467.90684964 128.04249358 468.54235587 125.74584961 469.18188477 C95.82957785 477.48154957 65.59813514 483.78779079 35 489 C34.15767822 489.14435486 33.31535645 489.28870972 32.44750977 489.43743896 C8.69280858 493.5029837 -14.93776397 497.01800614 -38.98779297 498.72216797 C-41.9589768 498.95322165 -41.9589768 498.95322165 -44.70033264 499.48300171 C-48.3978189 500.06233104 -52.07446462 500.34319811 -55.80688477 500.54980469 C-56.54863984 500.59177349 -57.29039492 500.63374229 -58.05462742 500.67698288 C-66.06538096 501.10009684 -74.06948358 501.18287062 -82.08984375 501.203125 C-83.26051486 501.20736607 -83.26051486 501.20736607 -84.45483589 501.21169281 C-88.59839312 501.2265391 -92.74191695 501.23585581 -96.88549805 501.24023438 C-100.22317665 501.24458125 -103.56059124 501.25834626 -106.89819336 501.28125 C-151.72167637 501.58230033 -196.91660808 498.15343044 -240 485 C-240.16394362 476.81374836 -239.7433717 468.87440605 -238.75 460.75 C-238.61287598 459.61723633 -238.47575195 458.48447266 -238.33447266 457.31738281 C-237.90631763 453.8758411 -237.45894693 450.43756294 -237 447 C-236.80712402 445.55367187 -236.80712402 445.55367187 -236.61035156 444.078125 C-232.72336496 416.06808412 -225.66262004 387.89885865 -217 361 C-216.40010254 359.13069824 -216.40010254 359.13069824 -215.78808594 357.22363281 C-204.66765536 322.81954822 -190.80808519 289.50361039 -175 257 C-174.56654266 256.10535034 -174.56654266 256.10535034 -174.12432861 255.19262695 C-166.43687913 239.32705104 -158.26683194 223.81420237 -149.45361328 208.54443359 C-147.71217354 205.49618285 -146.03190143 202.41761882 -144.35693359 199.33251953 C-133.27406918 179.00390853 -120.58053815 159.68902172 -107.75 140.4375 C-107.15898499 139.54998047 -106.56796997 138.66246094 -105.95904541 137.74804688 C-96.03398839 122.86235511 -85.89800912 108.13016093 -75.25 93.75 C-74.67838135 92.9768042 -74.1067627 92.2036084 -73.51782227 91.40698242 C-63.29206775 77.61593181 -52.91180512 63.96833722 -42.015625 50.69921875 C-39.09582265 47.13709717 -36.26242297 43.51248166 -33.4375 39.875 C-28.34149677 33.33737643 -22.9838329 27.04846603 -17.55126953 20.78955078 C-14.85690021 17.68131548 -12.1786799 14.55925429 -9.5 11.4375 C-8.76148804 10.57995117 -8.76148804 10.57995117 -8.00805664 9.70507812 C-5.27219041 6.52008213 -2.60248923 3.29607716 0 0 Z " fill="#FE0000" transform="translate(495,943)"/>
<path d="M0 0 C3.50827915 1.52079073 5.95271646 3.5995673 8.75 6.1875 C12.12246018 9.31099348 12.12246018 9.31099348 15.58178711 12.33666992 C22.43151168 18.14499176 28.7008147 24.55044548 35.03637695 30.90600586 C37.05764268 32.9326298 39.08419574 34.95385547 41.11132812 36.97460938 C47.28552948 43.14534101 53.39001592 49.30389287 59 56 C59.94836817 57.08391849 60.89885543 58.16598694 61.8515625 59.24609375 C69.07548925 67.5288771 75.8212565 76.11338564 82.41943359 84.90039062 C83.9123282 86.88353761 85.41689763 88.85712982 86.92578125 90.828125 C99.40387579 107.19228488 111.18522998 124.05472286 121.67138672 141.76660156 C123.04798951 144.08067036 124.44530559 146.38114045 125.84765625 148.6796875 C164.15839423 211.63011173 193.49751818 278.88950679 217.1875 348.5625 C217.55171051 349.63249237 217.91592102 350.70248474 218.29116821 351.80490112 C222.13572016 363.12993534 225.90113758 374.44511202 229 386 C228.47720459 386.19408447 227.95440918 386.38816895 227.41577148 386.58813477 C221.90415082 388.63762027 216.39849229 390.70260731 210.89668274 392.77828979 C207.5413959 394.04395312 204.1846773 395.30556848 200.82519531 396.56005859 C162.88348544 410.74331269 125.55035642 426.53463458 89 444 C86.88566873 445.00313562 84.77108532 446.00573997 82.65625 447.0078125 C77.76578868 449.3280612 72.88037283 451.65860981 68 454 C65.66097224 450.2370561 65.36058228 446.25599187 64.88671875 441.94921875 C64.69124909 440.29931574 64.49577358 438.64941343 64.30029297 436.99951172 C64.20053162 436.13324158 64.10077026 435.26697144 63.99798584 434.37445068 C62.26295316 419.35944305 60.22898153 404.43706639 57.73071289 389.53076172 C56.54944105 382.46912332 55.50762261 375.41689963 54.625 368.3125 C51.38058434 343.01525158 45.54601841 317.86819316 40 293 C39.59031982 291.15583496 39.59031982 291.15583496 39.17236328 289.27441406 C26.5624857 229.46093572 26.5624857 229.46093572 -3 177 C-11.55904045 180.0966416 -16.74871006 194.06392588 -20.5 201.875 C-31.96996305 226.4166102 -39.51749956 252.30915491 -46.11328125 278.50146484 C-46.96602744 281.86596179 -47.83956306 285.22436011 -48.71875 288.58203125 C-61.37068111 337.34168034 -69.23411371 387.27306488 -76.02365112 437.13713074 C-76.57093232 441.12066154 -77.14004292 445.06883978 -78 449 C-85.10642473 446.80213668 -91.66265005 443.93893071 -98.375 440.75 C-133.19657716 424.47341144 -168.88914635 410.29027935 -204.98193359 397.10351562 C-208.86462662 395.68386084 -212.7431466 394.25301377 -216.62158203 392.82177734 C-220.08022752 391.54559968 -223.5400779 390.27271191 -227 389 C-226.36288774 382.9914783 -224.74035194 377.55771218 -222.859375 371.828125 C-222.54110748 370.84544144 -222.22283997 369.86275787 -221.89492798 368.85029602 C-220.85412259 365.64769097 -219.80318822 362.44855289 -218.75 359.25 C-218.38996887 358.15243378 -218.02993774 357.05486755 -217.65899658 355.92404175 C-189.99280581 271.71096459 -153.28437167 189.2688326 -66 67 C-65.55769043 66.47422363 -65.11538086 65.94844727 -64.65966797 65.40673828 C-63.17346472 63.64228001 -61.68155605 61.88281254 -60.1875 60.125 C-59.75018555 59.6081665 -59.31287109 59.09133301 -58.86230469 58.55883789 C-49.63111684 47.77987667 -39.76743589 37.58076742 -29.73608398 27.55078125 C-27.92987805 25.74236874 -26.13187658 23.92604861 -24.33398438 22.109375 C-18.21218738 15.95905204 -12.03820735 10.14737231 -5.20922852 4.77832031 C-3.33839726 3.27239315 -1.65261715 1.73775503 0 0 Z " fill="#FE0000" transform="translate(936,96)"/>
<path d="M0 0 C9.09489502 5.06212511 17.87599521 10.40880419 26.5 16.25 C27.65339446 17.02621083 28.80713144 17.80191289 29.96118164 18.57714844 C31.77308812 19.79451224 33.58468588 21.01231546 35.39503479 22.23199463 C39.82293277 25.21461928 44.26515278 28.1750031 48.71484375 31.125 C69.12076205 44.65889449 89.21901665 58.56430819 109 73 C109.77730469 73.5671875 110.55460937 74.134375 111.35546875 74.71875 C122.68488318 82.99864831 133.89417393 91.42282285 145 100 C146.10408203 100.85078125 146.10408203 100.85078125 147.23046875 101.71875 C157.37555028 109.54146347 167.38642148 117.50944763 177.30322266 125.61914062 C179.5825022 127.47404783 181.8841444 129.30011923 184.1875 131.125 C189.65055609 135.48254727 195.04354241 139.94673122 200.28759766 144.56665039 C202.02561752 146.06521132 202.02561752 146.06521132 204.13037109 147.47827148 C207.36648432 149.87403801 209.59836803 151.67540832 210.79052734 155.60717773 C211.17367877 158.73328562 211.31826526 161.78872203 211.375 164.9375 C211.46336177 167.03006733 211.55465644 169.12251228 211.6484375 171.21484375 C211.71393799 172.98190674 211.71393799 172.98190674 211.78076172 174.78466797 C212.01784532 180.01605635 212.51029757 185.22569178 212.96875 190.44140625 C213.99029342 202.28654707 214.67325616 214.12009061 215.125 226 C215.16669312 227.08527985 215.20838623 228.17055969 215.25134277 229.28872681 C217.48317718 289.75002475 216.85971124 350.62123324 213 411 C211 411 211 411 208.83203125 408.9609375 C207.8857201 407.97616405 206.94196817 406.98892846 206 406 C204.8396468 404.82314251 203.67672567 403.64881331 202.51171875 402.4765625 C201.89176025 401.85144775 201.27180176 401.22633301 200.63305664 400.58227539 C195.47595721 395.394113 190.3467674 390.25828522 184.75390625 385.53515625 C182.03189547 383.15263902 179.54070656 380.54917163 177.00390625 377.97265625 C174.41753849 375.42662171 171.6846472 373.07978443 168.93359375 370.71484375 C166.43568444 368.4995262 164.11975011 366.1310183 161.78125 363.75 C159.91610326 361.91757513 157.98072254 360.20646865 156 358.5 C152.80387101 355.74641194 149.82738155 352.85289662 146.87426758 349.84301758 C145.06999067 348.06882371 143.21170309 346.41067338 141.29296875 344.76171875 C137.02751351 341.05284026 132.91229268 337.20268209 128.8125 333.3125 C123.69148337 328.47257598 118.56103758 323.64524503 113.375 318.875 C108.70936874 314.58343751 104.06745137 310.26753549 99.4375 305.9375 C93.97397593 300.83005082 88.48087284 295.7573127 82.9609375 290.7109375 C79.79744272 287.81793526 76.64824074 284.90958228 73.5 282 C69.34159806 278.1575823 65.17593814 274.32335234 61 270.5 C56.82406062 266.67664653 52.65863664 262.84216488 48.5 259 C46.87642669 257.50116702 45.25270429 256.00249577 43.62890625 254.50390625 C42.53215359 253.49131686 41.43580704 252.47828745 40.33984375 251.46484375 C38.72802959 249.97496352 37.11422691 248.48726524 35.5 247 C34.5615625 246.13375 33.623125 245.2675 32.65625 244.375 C30.8924453 242.79795109 29.07847618 241.27520599 27.21875 239.8125 C24.52910008 237.61532119 24.09559044 236.76122494 23.66563416 233.33731079 C23.56706619 232.20844452 23.46849823 231.07957825 23.36694336 229.91650391 C23.25258438 228.64229584 23.1382254 227.36808777 23.020401 226.05526733 C22.9606566 225.37176586 22.90091221 224.68826439 22.83935738 223.98405075 C22.51901121 220.33119159 22.18345583 216.67974158 21.84716797 213.02832031 C21.77788999 212.27504393 21.708612 211.52176754 21.63723469 210.7456646 C20.51156306 198.61667888 19.13544671 186.51375288 17.78829193 174.40775681 C17.16431464 168.79022178 16.54747577 163.17189416 15.92917633 157.55373192 C15.70133496 155.48406696 15.47320996 153.4144334 15.24505615 151.34480286 C14.09208484 140.87875914 12.9679168 130.4099766 11.875 119.9375 C11.79918701 119.21122406 11.72337402 118.48494812 11.64526367 117.73666382 C11.3394261 114.80584257 11.03358964 111.87502123 10.72805786 108.94416809 C10.10274958 102.9565695 9.46490411 96.97034597 8.82421875 90.984375 C6.69256584 71.06510593 4.57892925 51.14400264 2.52584839 31.21646118 C2.3018924 29.04608588 2.07691147 26.87581607 1.8508606 24.70565796 C1.53688673 21.68818779 1.22688768 18.67033506 0.91796875 15.65234375 C0.82448151 14.76077576 0.73099426 13.86920776 0.63467407 12.95062256 C0.1950644 8.61154833 -0.10458102 4.36881644 0 0 Z " fill="#FE0000" transform="translate(1013,637)"/>
<path d="M0 0 C-1.36853667 14.58563677 -2.7753336 29.16608277 -4.36219788 43.72975159 C-4.48822419 44.88683845 -4.48822419 44.88683845 -4.61679649 46.0673008 C-4.74460723 47.2405494 -4.74460723 47.2405494 -4.875 48.4375 C-5.48752315 54.06304994 -6.0986999 59.68874438 -6.70860291 65.31457901 C-6.89919595 67.07102266 -7.09012071 68.82743035 -7.28141785 70.58379745 C-7.97206241 76.92593759 -8.65296258 83.26905913 -9.32421875 89.61328125 C-9.43135256 90.6255352 -9.53848637 91.63778915 -9.64886665 92.68071747 C-11.33859952 108.74419832 -12.77775885 124.8192456 -14.10044098 140.91674614 C-14.70540382 148.19091938 -15.34600976 155.46205052 -15.9873848 162.73309231 C-16.53034253 168.92231185 -17.04812071 175.11196295 -17.51879883 181.30712891 C-17.98737215 187.45660108 -18.51852583 193.59781365 -19.09240913 199.7383194 C-19.2962387 202.0375124 -19.47790267 204.33879713 -19.63545036 206.64162445 C-20.99231841 226.18737084 -20.99231841 226.18737084 -28.00157261 232.66934586 C-30.35684585 234.55826149 -32.78109612 236.25833189 -35.32678413 237.87966156 C-37.8456625 239.5662319 -39.99182775 241.60679303 -42.1875 243.6875 C-45.45804605 246.66024023 -48.80235614 249.48485914 -52.25 252.25 C-57.32503095 256.35016624 -62.06391442 260.73501774 -66.80981445 265.2043457 C-70.25074169 268.42724887 -73.74953041 271.49479618 -77.4375 274.4375 C-83.43898526 279.2404638 -88.96923577 284.50523283 -94.55859375 289.7734375 C-97.65773486 292.69174676 -100.82075898 295.5196099 -104.046875 298.296875 C-106.56612276 300.49365905 -109.03102996 302.74689619 -111.5 305 C-114.61907011 307.84524228 -117.74755391 310.6719958 -120.9375 313.4375 C-124.83558073 316.82540247 -128.63682783 320.31590958 -132.43725586 323.81225586 C-135.6076186 326.72775509 -138.79386189 329.62375391 -142 332.5 C-147.1921641 337.16133582 -152.33406135 341.87650194 -157.47216797 346.59716797 C-158.97120702 347.97356272 -160.47164076 349.34841739 -161.97265625 350.72265625 C-167.13688081 355.45092319 -172.29287877 360.18790667 -177.4375 364.9375 C-177.96956055 365.42831055 -178.50162109 365.91912109 -179.04980469 366.42480469 C-181.91962294 369.07346897 -184.78351754 371.72825117 -187.640625 374.390625 C-188.23431885 374.94242432 -188.8280127 375.49422363 -189.43969727 376.06274414 C-190.58256367 377.12515173 -191.72375013 378.18937011 -192.86303711 379.25561523 C-196.77501374 382.88750687 -196.77501374 382.88750687 -199 384 C-203.65115081 309.67436262 -202.48336674 234.21747532 -196.68359375 160 C-196.62947327 159.30074905 -196.57535278 158.60149811 -196.51959229 157.88105774 C-196.36077953 155.91948743 -196.18063343 153.95968139 -196 152 C-195.93453979 151.27799911 -195.86907959 150.55599823 -195.80163574 149.81211853 C-195.22435984 144.28760531 -195.22435984 144.28760531 -193.1015625 141.56640625 C-192.28429687 140.90511719 -191.46703125 140.24382812 -190.625 139.5625 C-189.71621094 138.80839844 -188.80742188 138.05429687 -187.87109375 137.27734375 C-186.92363281 136.52582031 -185.97617187 135.77429688 -185 135 C-183.22894081 133.54194096 -181.45810816 132.08360672 -179.6875 130.625 C-178.7696875 129.8825 -177.851875 129.14 -176.90625 128.375 C-174.34651891 126.28317675 -171.82308724 124.15833632 -169.31005859 122.01123047 C-162.5960738 116.27514776 -155.72025733 110.78042264 -148.74853516 105.36181641 C-146.47646473 103.59225359 -144.21415605 101.8104726 -141.95214844 100.02807617 C-139.60987274 98.18334928 -137.26385585 96.34341442 -134.91748047 94.50390625 C-133.59036295 93.46302976 -132.26390911 92.42130672 -130.93798828 91.37890625 C-120.22691286 82.96358185 -109.37101072 74.7780863 -98.37353516 66.74121094 C-96.03721317 65.02729935 -93.71050132 63.30117753 -91.38671875 61.5703125 C-79.9621825 53.07189585 -68.33946375 44.88557113 -56.61669922 36.80419922 C-54.31622104 35.2180326 -52.01876106 33.62764264 -49.72265625 32.03515625 C-40.58845361 25.7121796 -31.35714328 19.53816738 -22.1015625 13.39453125 C-18.85687012 11.24014825 -15.62200335 9.07258062 -12.3984375 6.88671875 C-11.70306885 6.41693604 -11.0077002 5.94715332 -10.29125977 5.46313477 C-9.00541328 4.59358207 -7.72190417 3.72055936 -6.44116211 2.84350586 C-2.22397024 0 -2.22397024 0 0 0 Z " fill="#FE0000" transform="translate(846,646)"/>
<path d="M0 0 C2.2943448 1.19497868 4.47565076 2.41981728 6.6796875 3.76171875 C7.31999908 4.14374954 7.96031067 4.52578033 8.62002563 4.91938782 C10.70930884 6.16841753 12.7921356 7.42780072 14.875 8.6875 C16.33364042 9.56242264 17.79262814 10.43676652 19.25195312 11.31054688 C28.25778764 16.71052529 37.23110758 22.16442392 46.18823242 27.64477539 C55.86568102 33.55569034 65.62395525 39.32927832 75.38012695 45.10888672 C76.74301744 45.9163139 78.10589204 46.72376791 79.46875 47.53125 C80.12936935 47.92265167 80.78998871 48.31405334 81.47062683 48.71731567 C86.72291261 51.83119236 91.95838212 54.97237722 97.1875 58.125 C105.76750339 63.29357802 114.41106326 68.35183282 123.05862427 73.40612793 C132.81302529 79.10892132 142.51569927 84.89259398 152.19384766 90.72412109 C161.39856824 96.26134753 170.68117548 101.65750346 180 107 C176.21886235 111.21268053 171.63287451 114.18763187 167 117.375 C165.17432424 118.64040151 163.3488075 119.90603246 161.5234375 121.171875 C160.5962793 121.81318359 159.66912109 122.45449219 158.71386719 123.11523438 C156.22980952 124.84039857 153.75677004 126.57968563 151.2890625 128.328125 C128.33170253 144.57718122 104.79351237 160.0071074 81 175 C80.11618652 175.55703613 79.23237305 176.11407227 78.32177734 176.68798828 C58.67431027 189.03475721 38.65460012 200.76996056 18.5625 212.375 C17.46075439 213.01163574 16.35900879 213.64827148 15.22387695 214.30419922 C14.20253662 214.89217285 13.18119629 215.48014648 12.12890625 216.0859375 C11.23244385 216.6020459 10.33598145 217.1181543 9.41235352 217.64990234 C8.61627686 218.09543457 7.8202002 218.5409668 7 219 C6.33734131 219.41072754 5.67468262 219.82145508 4.99194336 220.24462891 C2.27049849 221.27663656 0.76337884 220.83958107 -2 220 C-4.37402344 218.93115234 -4.37402344 218.93115234 -6.859375 217.5859375 C-7.7970874 217.0801416 -8.7347998 216.5743457 -9.70092773 216.05322266 C-10.70712158 215.49940918 -11.71331543 214.9455957 -12.75 214.375 C-13.80840088 213.79669434 -14.86680176 213.21838867 -15.95727539 212.62255859 C-26.758517 206.66901804 -37.31179585 200.32263955 -47.84570312 193.91162109 C-51.00817361 191.99504649 -54.1814638 190.09787866 -57.359375 188.20703125 C-58.41970947 187.57522949 -59.48004395 186.94342773 -60.57250977 186.29248047 C-62.53012629 185.12671745 -64.48879437 183.96271661 -66.44897461 182.80126953 C-83.84267532 172.41124711 -100.77993652 161.25705426 -117.68945312 150.10302734 C-120.52520475 148.2333822 -123.36408192 146.36854849 -126.203125 144.50390625 C-136.2876492 137.86653038 -146.23056152 131.091913 -156 124 C-157.56408197 122.88994693 -159.13019776 121.7827484 -160.69921875 120.6796875 C-161.36574463 120.21079102 -162.03227051 119.74189453 -162.71899414 119.25878906 C-163.36860107 118.80213867 -164.01820801 118.34548828 -164.6875 117.875 C-171.16967062 113.30977898 -177.60938906 108.69288924 -184 104 C-181.22262654 101.01114732 -178.56071009 98.98949092 -174.984375 97.0390625 C-173.49780396 96.21946045 -173.49780396 96.21946045 -171.98120117 95.38330078 C-170.91490479 94.80306152 -169.8486084 94.22282227 -168.75 93.625 C-166.46905029 92.36639717 -164.18912627 91.10593395 -161.91015625 89.84375 C-161.33022415 89.52310577 -160.75029205 89.20246155 -160.15278625 88.87210083 C-154.44633285 85.70980463 -148.81231951 82.42965246 -143.1875 79.125 C-134.49184742 74.02353131 -125.75985385 68.99005521 -117 64 C-107.27999345 58.46127999 -97.59349657 52.86853523 -87.9375 47.21875 C-80.64099787 42.95116719 -73.32493637 38.71857249 -66 34.5 C-57.61210619 29.66773538 -49.23618593 24.81582896 -40.875 19.9375 C-39.90651123 19.37474365 -38.93802246 18.8119873 -37.94018555 18.23217773 C-32.71292816 15.19022426 -27.51339896 12.10909121 -22.33984375 8.9765625 C-20.70136475 7.99441772 -20.70136475 7.99441772 -19.02978516 6.99243164 C-16.92980094 5.73272795 -14.83664044 4.46155793 -12.75146484 3.17749023 C-11.80867676 2.61489502 -10.86588867 2.0522998 -9.89453125 1.47265625 C-9.06800049 0.97000244 -8.24146973 0.46734863 -7.38989258 -0.05053711 C-4.3399848 -1.2622126 -3.09792005 -1.05532585 0 0 Z " fill="#FE0000" transform="translate(936,1060)"/>
<path d="M0 0 C14.95021725 12.82710947 25.06747797 26.73109483 33.1875 44.5625 C33.70054687 45.67109375 34.21359375 46.7796875 34.7421875 47.921875 C45.61470747 75.30887126 43.31309586 105.56248205 32.16113281 132.34960938 C19.68078014 160.71518525 -3.34790067 180.05421573 -31.3046875 192.0625 C-52.21638706 200.17604625 -77.21143343 201.65699887 -98.8125 195.5625 C-100.03839844 195.2221875 -101.26429688 194.881875 -102.52734375 194.53125 C-131.50497762 185.67946504 -154.9848529 165.07221244 -169.62304688 138.80957031 C-174.50988826 129.57753252 -177.6843276 119.77513218 -179.8125 109.5625 C-179.98096436 108.85843018 -180.14942871 108.15436035 -180.32299805 107.42895508 C-181.87561537 100.54833603 -182.16014845 93.91399469 -182.125 86.875 C-182.12081055 85.7288623 -182.11662109 84.58272461 -182.11230469 83.40185547 C-181.99751807 74.76721523 -181.19266182 66.89821824 -178.8125 58.5625 C-178.54566406 57.57121094 -178.27882813 56.57992187 -178.00390625 55.55859375 C-172.68659258 37.81058236 -162.53632604 21.8689188 -149.8125 8.5625 C-149.00425781 7.65951172 -149.00425781 7.65951172 -148.1796875 6.73828125 C-109.88654308 -34.53749503 -42.35971003 -33.5569251 0 0 Z " fill="#FE0000" transform="translate(1003.8125,849.4375)"/>
<path d="M0 0 C26.47337561 89.42921926 44.98445025 181.74207798 55 293 C50.14218312 289.42271169 45.44227673 285.753714 40.875 281.8125 C35.82919889 277.4947074 30.68015096 273.3415063 25.43847656 269.26464844 C21.62884294 266.29602125 17.86964144 263.27389362 14.13525391 260.21118164 C7.00348509 254.36216114 -0.25449176 248.73514917 -7.66015625 243.23828125 C-11.76668511 240.18686892 -15.82957633 237.08024695 -19.89086914 233.96899414 C-28.24210527 227.57301662 -36.63436879 221.2698937 -45.24707031 215.23046875 C-47.14489304 213.89829235 -49.03761639 212.55908179 -50.9296875 211.21875 C-54.53343829 208.66687267 -58.14346881 206.12402445 -61.75488281 203.58300781 C-63.96252735 202.02642156 -66.16513665 200.46292352 -68.3671875 198.8984375 C-87.75723703 185.16945794 -107.56273951 171.99374467 -127.56298828 159.17089844 C-129.65832169 157.82580161 -131.74680026 156.46995531 -133.82763672 155.10253906 C-139.80349327 151.20921428 -139.80349327 151.20921428 -146.28515625 148.296875 C-150.41937925 146.6303665 -152.32949356 145.60057938 -155 142 C-157.60609259 133.84909448 -157.98953038 125.17409866 -158.62304688 116.68798828 C-159.01610317 111.5487909 -159.57518453 106.43124805 -160.140625 101.30859375 C-160.90507131 94.26930911 -161.66887899 87.23018033 -162.36328125 80.18359375 C-162.44318298 79.429608 -162.52308472 78.67562225 -162.60540771 77.89878845 C-163.32156295 70.41738269 -163.32156295 70.41738269 -162 67 C-159.97924805 65.49291992 -159.97924805 65.49291992 -157.26171875 64.23046875 C-156.23248291 63.74247803 -155.20324707 63.2544873 -154.14282227 62.75170898 C-153.00256592 62.23552002 -151.86230957 61.71933105 -150.6875 61.1875 C-148.90073853 60.35424194 -148.90073853 60.35424194 -147.07788086 59.50415039 C-143.06567182 57.63874385 -139.03394474 55.81780951 -135 54 C-133.54783465 53.34313636 -132.09568645 52.68623479 -130.64355469 52.02929688 C-120.81683012 47.59183502 -110.9568932 43.23191009 -101.07879639 38.91015625 C-99.14426972 38.06316539 -97.210858 37.21369022 -95.27783203 36.36328125 C-69.1484717 24.89275376 -42.58091153 14.44357681 -15.8125 4.5625 C-15.17258118 4.3248996 -14.53266235 4.08729919 -13.87335205 3.84249878 C-12.09080982 3.18236566 -10.3052455 2.53041 -8.51953125 1.87890625 C-7.52026611 1.5135376 -6.52100098 1.14816895 -5.49145508 0.77172852 C-3 0 -3 0 0 0 Z " fill="#FE0000" transform="translate(1167,488)"/>
<path d="M0 0 C5.01151843 0.57669532 9.40924878 1.67352732 14.15234375 3.37890625 C15.17256371 3.74405334 15.17256371 3.74405334 16.21339417 4.11657715 C18.45781932 4.92370195 20.69786571 5.7421819 22.9375 6.5625 C24.10708252 6.98775467 24.10708252 6.98775467 25.30029297 7.42160034 C61.85882841 20.72951717 97.71108193 35.82130032 133.07788086 52.01391602 C133.7535611 52.32321045 134.42924133 52.63250488 135.12539673 52.95117188 C136.95756489 53.79062866 138.78899047 54.63170562 140.62036133 55.47290039 C144.06256987 57.02827238 147.52346721 58.5233382 151 60 C150.56806072 67.60765524 149.92323548 75.14776841 148.94921875 82.703125 C148.80208435 83.84519157 148.80208435 83.84519157 148.65197754 85.0103302 C148.1124443 89.13829814 147.54604355 93.26173219 146.96142578 97.38354492 C145.79300017 105.77535295 144.86428152 113.99585949 144.73046875 122.47265625 C144.20208643 143.08123425 144.20208643 143.08123425 138.61767578 149.91552734 C132.33499376 155.42244018 125.18360331 159.21235497 117.77636719 162.99023438 C112.14970418 165.90738884 106.98079782 169.50844038 101.76196289 173.08877563 C99.51335691 174.62522345 97.24616807 176.13296435 94.9788208 177.64155579 C79.3771682 188.03198771 64.1400065 198.95118286 49 210 C48.22269531 210.5671875 47.44539062 211.134375 46.64453125 211.71875 C35.31511682 219.99864831 24.10582607 228.42282285 13 237 C12.26394531 237.5671875 11.52789063 238.134375 10.76953125 238.71875 C0.62444972 246.54146347 -9.38642148 254.50944763 -19.30322266 262.61914062 C-21.5825022 264.47404783 -23.8841444 266.30011923 -26.1875 268.125 C-30.61466732 271.65033694 -34.91934253 275.30995885 -39.22607422 278.98022461 C-43.71344445 282.79080014 -48.30603261 286.44616939 -53 290 C-54.22445007 286.32664979 -53.86854697 283.85771847 -53.50390625 279.99609375 C-53.43594345 279.27235062 -53.36798065 278.54860748 -53.29795837 277.80293274 C-53.06242469 275.34673554 -52.81411031 272.89210095 -52.5625 270.4375 C-52.47419922 269.56879272 -52.38589844 268.70008545 -52.29492188 267.80505371 C-43.02403072 177.64482686 -26.72880934 86.68039929 0 0 Z " fill="#FE0000" transform="translate(706,491)"/>
<path d="M0 0 C2.6640625 1.828125 2.6640625 1.828125 5.625 4.25 C10.94778397 8.49831135 16.42268427 12.43343547 22.0625 16.25 C27.84221696 20.16283257 33.59322681 24.10649549 39.29150391 28.13720703 C50.99271307 36.40823055 62.95031189 44.24807934 75 52 C76.02851074 52.66322266 77.05702148 53.32644531 78.11669922 54.00976562 C109.29476584 74.10475928 141.02624385 93.15295481 173.29052734 111.44458008 C174.18465332 111.95786865 175.0787793 112.47115723 176 113 C176.94182129 113.52037842 177.88364258 114.04075684 178.85400391 114.5769043 C179.91627197 115.28133667 179.91627197 115.28133667 181 116 C181 116.66 181 117.32 181 118 C141.89057234 139.54524404 101.9832051 159.19380681 61.07879639 177.08984375 C59.14426972 177.93683461 57.210858 178.78630978 55.27783203 179.63671875 C28.64611684 191.32777499 1.57537164 201.98152358 -25.75 211.9375 C-26.4659433 212.19901855 -27.1818866 212.46053711 -27.91952515 212.72998047 C-29.91878389 213.45840809 -31.91982347 214.18163225 -33.921875 214.90234375 C-35.05206055 215.30960693 -36.18224609 215.71687012 -37.34667969 216.13647461 C-40 217 -40 217 -42 217 C-48.58457699 196.57036876 -53.83475348 175.82393883 -59 155 C-59.19720642 154.20728699 -59.39441284 153.41457397 -59.59759521 152.59783936 C-66.23313168 125.89537459 -71.8086906 99.01778691 -77 72 C-77.14842346 71.22827454 -77.29684692 70.45654907 -77.44976807 69.66143799 C-78.3317494 65.06801075 -79.20237915 60.47258099 -80.0625 55.875 C-80.26649414 54.78550049 -80.47048828 53.69600098 -80.68066406 52.57348633 C-80.85952148 51.59790771 -81.03837891 50.6223291 -81.22265625 49.6171875 C-81.45094116 48.37364502 -81.45094116 48.37364502 -81.68383789 47.10498047 C-82 45 -82 45 -82 42 C-80.906875 41.44054688 -79.81375 40.88109375 -78.6875 40.3046875 C-68.31907628 34.94787744 -58.19788117 29.25864931 -48.14550781 23.33129883 C-40.34499637 18.74609887 -32.45365002 14.35856645 -24.48339844 10.07592773 C-18.62648069 6.92257616 -12.93167756 3.61908222 -7.33984375 0.01171875 C-4.31750312 -1.29510299 -3.08102458 -1.13112884 0 0 Z " fill="#FE0000" transform="translate(749,1168)"/>
<path d="M0 0 C4.1009047 0.45325314 6.95267892 1.93830426 10.4453125 4.0703125 C12.04088989 5.03312134 12.04088989 5.03312134 13.66870117 6.01538086 C14.23124603 6.35890594 14.79379089 6.70243103 15.37338257 7.05636597 C18.38289083 8.89241926 21.40795866 10.70240198 24.43359375 12.51171875 C25.05730362 12.88504837 25.68101349 13.25837799 26.32362366 13.64302063 C32.86923645 17.54541015 39.51581929 21.2559706 46.1875 24.9375 C47.31551025 25.56019775 48.44352051 26.18289551 49.60571289 26.82446289 C51.76043269 28.01241298 53.91560229 29.1995477 56.07128906 30.38574219 C65.81451806 35.75605147 75.5026219 41.20317974 85 47 C84.48771585 57.89404265 82.11964389 68.52061665 80 79.1875 C79.80092041 80.19665466 79.60184082 81.20580933 79.39672852 82.24554443 C70.7618483 125.95339762 60.3610261 169.19790462 48 212 C42.13733154 211.4536301 37.12655021 210.23113736 31.62109375 208.18359375 C30.82851166 207.89572495 30.03592957 207.60785614 29.21932983 207.31126404 C26.62159891 206.36331996 24.02932674 205.4014606 21.4375 204.4375 C20.53961761 204.10631165 19.64173523 203.77512329 18.71664429 203.43389893 C-1.06657484 196.13109158 -20.57617052 188.20507754 -40 180 C-40.67081604 179.71745361 -41.34163208 179.43490723 -42.03277588 179.14379883 C-51.4004354 175.19748425 -60.71971254 171.14712492 -70 167 C-70.69343506 166.69034302 -71.38687012 166.38068604 -72.10131836 166.06164551 C-93.43953868 156.5159786 -114.47115 146.39909519 -135.375 135.9375 C-136.4319104 135.40870239 -137.4888208 134.87990479 -138.57775879 134.33508301 C-151.13481432 128.04308884 -163.62251469 121.6386428 -176 115 C-176 114.34 -176 113.68 -176 113 C-175.31301025 112.62415771 -174.62602051 112.24831543 -173.91821289 111.86108398 C-157.04533738 102.61002128 -140.42449123 93.03193929 -124 83 C-122.9392627 82.35417969 -121.87852539 81.70835938 -120.78564453 81.04296875 C-57.1624012 44.88222421 -57.1624012 44.88222421 0 0 Z " fill="#FE0000" transform="translate(1120,1171)"/>
<path d="M0 0 C5.53027742 3.97602238 10.579779 8.23307253 15.5 12.9375 C16.81815972 14.18319247 18.13716014 15.42799597 19.45703125 16.671875 C20.07529785 17.25517578 20.69356445 17.83847656 21.33056641 18.43945312 C23.82936424 20.77526999 26.40545 23.01355194 28.99609375 25.24609375 C33.22161281 28.94445254 37.32684212 32.77892329 41.45751953 36.58251953 C42.91499983 37.9218881 44.3772771 39.25603125 45.83984375 40.58984375 C61.79843466 55.14740611 77.29589707 70.13110248 92.55126953 85.42089844 C95.13501777 88.01041167 97.72332744 90.59531233 100.31292152 93.17897797 C102.34293509 95.20535774 104.37053655 97.23413769 106.39744186 99.2636261 C107.80680247 100.67395909 109.21814285 102.08231282 110.62954712 103.49060059 C115.0786444 107.95590049 119.4015931 112.46485409 123.48373413 117.26965332 C125.08389648 119.09574178 126.76671081 120.80045907 128.5 122.5 C134.06409839 127.97676949 139.03568291 133.98264596 144 140 C141.33274862 145.18179753 137.37748163 149.03127094 133.375 153.1875 C131.92231373 154.71141706 130.47048497 156.23615201 129.01953125 157.76171875 C128.3229541 158.49310059 127.62637695 159.22448242 126.90869141 159.97802734 C124.57891513 162.44607635 122.31407036 164.96048458 120.0625 167.5 C116.63052453 171.35688672 113.0426019 175.00851233 109.3359375 178.6015625 C107.42720395 180.56136584 105.65044728 182.55002705 103.87133789 184.62426758 C99.9951161 189.06678213 95.89620304 193.24824244 91.72265625 197.41015625 C90.95247665 198.18129257 90.18229706 198.95242889 89.38877869 199.74693298 C87.77058627 201.36580153 86.15114788 202.98342551 84.53051758 204.59985352 C82.06932768 207.05568718 79.61352191 209.51681365 77.15820312 211.97851562 C75.57584133 213.56021653 73.99316933 215.14160717 72.41015625 216.72265625 C71.68594986 217.44888687 70.96174347 218.17511749 70.21559143 218.9233551 C66.18334685 222.93737833 62.06002268 226.78081987 57.73814392 230.48204041 C55.19379608 232.70407575 52.86025232 235.08287413 50.5 237.5 C46.91134107 241.13717092 43.25020097 244.60984959 39.359375 247.921875 C37.35193821 249.69001469 35.3982988 251.49248132 33.453125 253.328125 C32.48004395 254.24597778 32.48004395 254.24597778 31.48730469 255.18237305 C30.19831948 256.40184173 28.91232074 257.62447789 27.62988281 258.85083008 C23.32160028 262.92184982 18.81208712 266.54032435 14 270 C8.8556375 267.32218405 4.66169133 264.28375906 2 259 C0.4295266 250.88426282 1.65767622 242.34886284 2.37783813 234.16906738 C2.97818455 227.32972306 3.36213597 220.47615406 3.75904274 213.62251663 C3.85528183 211.96882745 3.95362839 210.31525968 4.05399132 208.66181564 C5.42017386 186.03701635 5.37276309 163.40823361 5.3125 140.75 C5.30856172 138.65442922 5.30467572 136.55885833 5.30084229 134.46328735 C5.23695708 105.39889694 4.91140825 76.37519536 3.14251709 47.35668945 C2.99766552 44.96139658 2.86032016 42.56577647 2.72509766 40.16992188 C1.96631492 26.76831283 1.05333128 13.38187493 0 0 Z " fill="#FE0000" transform="translate(1229,795)"/>
<path d="M0 0 C-0.11946813 4.51674032 -0.24377704 9.0333155 -0.37231445 13.54980469 C-0.41526857 15.0819957 -0.45696577 16.61422254 -0.49731445 18.14648438 C-0.69284346 25.54279165 -0.90930813 32.89555125 -1.73022461 40.25390625 C-4.72508468 70.73914256 -4.19485279 101.65884802 -4.18803024 132.25330734 C-4.18750803 135.14308569 -4.1886616 138.03285991 -4.18997192 140.92263794 C-4.19313491 160.24501217 -4.07816832 179.5590027 -3.5546875 198.875 C-3.53565557 199.60351355 -3.51662365 200.33202709 -3.497015 201.08261681 C-3.22070919 211.35424908 -2.66727258 221.58442173 -1.63484192 231.81019592 C-1.2824095 235.63292074 -1.17011216 237.97249635 -3.64453125 241.03613281 C-5.68720197 242.82726648 -7.79237135 244.41919295 -10 246 C-11.39364147 247.3561023 -12.77360001 248.72679828 -14.125 250.125 C-17.26580734 253.31546437 -20.5051686 256.20413488 -24 259 C-26.89059376 257.68383888 -29.02562293 256.24755763 -31.3203125 254.05859375 C-32.23973633 253.18956421 -32.23973633 253.18956421 -33.17773438 252.30297852 C-34.14163086 251.37956665 -34.14163086 251.37956665 -35.125 250.4375 C-36.47065757 249.16332642 -37.81701276 247.8898892 -39.1640625 246.6171875 C-40.14681152 245.68664551 -40.14681152 245.68664551 -41.14941406 244.73730469 C-43.56337373 242.47111248 -46.02581573 240.26262078 -48.5 238.0625 C-51.85447306 235.06783016 -55.05591193 231.97636215 -58.2021637 228.76539612 C-59.91337314 227.08506376 -61.67874488 225.53454434 -63.50756836 223.98413086 C-69.00261853 219.20166244 -74.11166465 214.0327216 -79.25390625 208.87890625 C-80.32414967 207.80933836 -81.39454134 206.73991879 -82.46507263 205.67063904 C-84.69635913 203.44081776 -86.92585057 201.2092216 -89.15405273 198.97631836 C-91.99031888 196.13435568 -94.83105231 193.29690758 -97.67315769 190.46078587 C-99.88076333 188.25681774 -102.08595221 186.05044381 -104.29044914 183.84336662 C-105.33615979 182.79699551 -106.38259535 181.75134826 -107.42981148 180.70648384 C-112.63092626 175.51449204 -117.76361846 170.30663449 -122.51792908 164.69615173 C-124.10494522 162.87989575 -125.77821537 161.18833664 -127.5 159.5 C-133.06409839 154.02323051 -138.03568291 148.01735404 -143 142 C-141.75054151 137.41865222 -139.21972219 135.03441267 -135.8984375 131.85546875 C-134.13880833 130.13566658 -132.53522361 128.36941772 -130.9375 126.5 C-126.44441173 121.29800225 -121.73093688 116.3050541 -117.02709961 111.29443359 C-114.47218935 108.57188161 -111.9221257 105.844953 -109.37670898 103.11352539 C-100.32684995 93.42353022 -91.09483527 83.93728062 -81.70605469 74.57568359 C-79.46951005 72.34458428 -77.238477 70.10807053 -75.0078125 67.87109375 C-73.55761277 66.42155368 -72.10710349 64.97232321 -70.65625 63.5234375 C-69.67791199 62.54206314 -69.67791199 62.54206314 -68.67980957 61.54086304 C-64.83533306 57.71566928 -60.88100507 54.07596372 -56.76464844 50.54446411 C-54.21318552 48.31136044 -51.86911011 45.9261971 -49.5 43.5 C-45.91078381 39.86226429 -42.24670527 36.39130016 -38.359375 33.07421875 C-35.00317927 30.12365595 -31.75820322 27.05796735 -28.5 24 C-23.41350637 19.23571086 -18.3234448 14.50054589 -13 10 C-12.51337891 9.5870166 -12.02675781 9.1740332 -11.52539062 8.74853516 C-9.87424711 7.34940309 -8.21916914 5.95508359 -6.5625 4.5625 C-5.76259644 3.88719238 -5.76259644 3.88719238 -4.9465332 3.19824219 C-1.11647044 0 -1.11647044 0 0 0 Z " fill="#FE0000" transform="translate(644,797)"/>
</svg>
